# xmcd CD Database Entry
#
# Track frame offsets:
# 150
# 14800
# 30168
# 41618
# 55750
# 61252
# 75116
# 89629
# 99345
# 113325
# 124293
# 138629
# 152270
# 161697
# 181155
#
# Disc length: 2593 seconds
#
# Revision: 1
# Processed by: cddbd v1.4PL0 Copyright (c) Steve Scherf et al.
# Submitted via: tcd 2.0b
#
DISCID=ae0a1f0f
DTITLE=Lead Belly - Absolutely the Best
DYEAR=1900
DGENRE=
TTITLE0=In New Orleans (House of the Rising Sun)
TTITLE1=The Bourgeois Blues
TTITLE2=Goodnight, Irene
TTITLE3=Looky, Looky Yonder - Black Betty - Yellow Women's Doorbells
TTITLE4=Borrow Love and Go
TTITLE5=De Kalb Blues
TTITLE6=John Hardy
TTITLE7=How Long
TTITLE8=Roberta
TTITLE9=Pretty Flowers in Your Backyard
TTITLE10=The Gallis Pole
TTITLE11=Where Did You Sleep Last Night
TTITLE12=Midnight Special
TTITLE13=John Hardy (Version 2)
TTITLE14=When I Was a Cowboy
EXTD=
EXTT0=
EXTT1=
EXTT2=
EXTT3=
EXTT4=
EXTT5=
EXTT6=
EXTT7=
EXTT8=
EXTT9=
EXTT10=
EXTT11=
EXTT12=
EXTT13=
EXTT14=
PLAYORDER=
